<svg width="25" height="24" viewBox="0 0 25 24" fill="none" xmlns="http://www.w3.org/2000/svg">
<path d="M18.4368 0.827225C18.275 0.874216 18.111 0.922413 17.9447 0.970609C16.3102 1.44052 14.4603 1.90321 12.5011 1.90321C5.87295 1.90441 0.5 -3.40079 0.5 3.70213C0.5 10.8039 5.87295 24 12.5011 24C19.1271 24 24.5 10.8039 24.5 3.70213C24.5 -1.08737 22.0579 -0.236708 18.4368 0.827225ZM5.78866 10.4641C5.73854 10.3532 5.70209 10.1375 5.70209 9.95078C5.70209 8.71575 6.93455 7.72773 8.4552 7.72773C9.97584 7.72773 11.2083 8.70973 11.2083 9.95078C11.2083 10.1327 11.173 10.3532 11.1217 10.4641H5.78866ZM12.5011 19.4418C10.1364 19.4418 8.17157 17.5899 7.73759 15.2885H17.2647C16.8284 17.5899 14.8647 19.4418 12.5011 19.4418ZM19.1384 10.4641H13.8076C13.7564 10.3532 13.7211 10.1375 13.7211 9.95078C13.7211 8.71575 14.9535 7.72773 16.4742 7.72773C17.9948 7.72773 19.2273 8.70973 19.2273 9.95078C19.225 10.1375 19.1908 10.3556 19.1384 10.4641Z" fill="#1F1F1F"/>
</svg>
