<svg width="14" height="12" viewBox="0 0 14 12" fill="none" xmlns="http://www.w3.org/2000/svg">
<path d="M7 1.95447L6.64811 2.28367C6.65033 2.28587 6.65254 2.28805 6.65475 2.2902L7 1.95447ZM7.95708 3.55565C8.14781 3.74101 8.45704 3.74095 8.6477 3.55553C8.83843 3.37011 8.83836 3.06953 8.64757 2.88418L7.95708 3.55565ZM5.32394 10.0697C4.337 9.31346 3.25781 8.57493 2.40168 7.63785C1.56228 6.71906 0.976744 5.64703 0.976744 4.25618H0C0 5.94331 0.723116 7.23042 1.67135 8.26827C2.60285 9.28783 3.79027 10.1034 4.71925 10.8153L5.32394 10.0697ZM0.976744 4.25618C0.976744 2.89478 1.76815 1.75312 2.84842 1.27313C3.89791 0.806832 5.30806 0.930321 6.64811 2.28367L7.35189 1.62527C5.76181 0.0194648 3.91615 -0.245191 2.44236 0.409642C0.999346 1.0508 0 2.53957 0 4.25618H0.976744ZM4.71925 10.8153C5.0528 11.0709 5.41086 11.3435 5.77373 11.5496C6.13649 11.7556 6.55044 11.9231 7 11.9231V10.9736C6.7984 10.9736 6.56118 10.8972 6.26653 10.7298C5.97201 10.5625 5.66647 10.3322 5.32394 10.0697L4.71925 10.8153ZM9.28076 10.8153C10.2097 10.1034 11.3972 9.28783 12.3287 8.26827C13.2769 7.23042 14 5.94331 14 4.25618H13.0233C13.0233 5.64703 12.4377 6.71906 11.5983 7.63785C10.7422 8.57493 9.663 9.31346 8.67609 10.0697L9.28076 10.8153ZM14 4.25618C14 2.53957 13.0007 1.0508 11.5576 0.409642C10.0838 -0.245191 8.23819 0.0194648 6.64811 1.62527L7.35189 2.28367C8.69192 0.930321 10.1021 0.806832 11.1516 1.27313C12.2318 1.75312 13.0233 2.89478 13.0233 4.25618H14ZM8.67609 10.0697C8.33352 10.3322 8.02799 10.5625 7.73347 10.7298C7.43882 10.8972 7.2016 10.9736 7 10.9736V11.9231C7.44956 11.9231 7.86351 11.7556 8.22627 11.5496C8.58916 11.3435 8.94717 11.0709 9.28076 10.8153L8.67609 10.0697ZM6.65475 2.2902L7.95708 3.55565L8.64757 2.88418L7.34525 1.61874L6.65475 2.2902Z" fill="#1F1F1F"/>
</svg>
