<svg width="18" height="23" viewBox="0 0 18 23" fill="none" xmlns="http://www.w3.org/2000/svg">
<path d="M0.750005 9.00088C0.752586 6.8134 1.6227 4.71626 3.16948 3.16948C4.71605 1.6229 6.81284 0.752815 9 0.750001C11.1872 0.752815 13.2839 1.6229 14.8305 3.16948C16.3773 4.71626 17.2474 6.8134 17.25 9.00088C17.2517 10.7858 16.6687 12.5221 15.5901 13.9443L15.5153 14.043L15.5151 14.0437L15.4645 14.1097C15.4317 14.1524 15.3983 14.1958 15.3711 14.2308C15.3473 14.2615 15.3341 14.2784 15.3294 14.2843C15.3289 14.285 15.3284 14.2856 15.3281 14.286L8.99999 21.7494L2.67069 14.2848L2.6707 14.2848L2.66738 14.2809C2.66955 14.2834 2.6687 14.2823 2.66407 14.2765C2.65846 14.2694 2.64731 14.2553 2.62926 14.2321C2.60218 14.1972 2.56895 14.154 2.53616 14.1113L2.44866 13.9967L2.42069 13.96L2.41299 13.9498L2.411 13.9472L2.41062 13.9467L2.41051 13.9466L2.41039 13.9464L2.41037 13.9464L2.41036 13.9464C1.33121 12.5237 0.747996 10.7866 0.750005 9.00088ZM0.750005 9.00088L5.64887e-06 9L0.750005 9.00088ZM16.1869 14.4L16.1877 14.3975L16.1869 14.4ZM16.1869 14.4C16.1869 14.4 15.9406 14.7224 15.9046 14.7657L9.49165 22.3292L16.1869 14.4ZM13.0227 9.00093V9C13.0227 8.20438 12.7868 7.42662 12.3448 6.76509C11.9028 6.10356 11.2745 5.58795 10.5394 5.28348C9.80437 4.97901 8.99554 4.89935 8.21521 5.05456C7.43487 5.20978 6.71809 5.59291 6.1555 6.1555C5.59292 6.71809 5.20979 7.43487 5.05457 8.2152C4.89935 8.99553 4.97902 9.80437 5.28349 10.5394C5.58796 11.2745 6.10356 11.9027 6.76509 12.3448C7.42663 12.7868 8.20438 13.0227 9 13.0227L9.00094 13.0227C10.0672 13.0214 11.0894 12.5972 11.8433 11.8433C12.5972 11.0894 13.0214 10.0672 13.0227 9.00093Z" stroke="#1F1F1F" stroke-width="1.5"/>
</svg>
