<svg width="25" height="21" viewBox="0 0 25 21" fill="none" xmlns="http://www.w3.org/2000/svg">
<path d="M21.8076 7.06421H4.71368C3.7472 7.06421 2.95862 6.27297 2.95862 5.30915V4.52056C2.95862 3.55409 3.74986 2.7655 4.71368 2.7655H21.8076C22.7741 2.7655 23.5627 3.55674 23.5627 4.52056V5.30915C23.5627 6.27297 22.7714 7.06421 21.8076 7.06421Z" fill="#7F7F7F"/>
<path d="M20.7722 0.304169H4.22785C2.17806 0.304169 0.5 1.98223 0.5 4.03202V16.968C0.5 19.0177 2.17806 20.6958 4.22785 20.6958H20.7722C22.8219 20.6958 24.5 19.0177 24.5 16.968V4.03202C24.5 1.98223 22.8219 0.304169 20.7722 0.304169ZM22.9069 5.0038H19.1127L21.8794 2.21057C22.0227 2.29819 22.1555 2.4044 22.2776 2.52388C22.6839 2.93012 22.9069 3.46381 22.9069 4.03202V5.0038ZM5.0297 5.0038L7.79107 1.89727H9.41869L6.52191 5.0038H5.0297ZM11.5986 1.89727H16.0911L13.0483 5.0038H8.70179L11.5986 1.89727ZM18.2046 1.89727H19.9464L16.8717 5.0038H15.2786L18.2657 1.95568L18.2046 1.89727ZM2.71971 2.52654C3.12595 2.1203 3.65964 1.89727 4.22785 1.89727H5.65898L2.89761 5.0038H2.09044V4.03467C2.0931 3.46647 2.31613 2.93278 2.71971 2.52654ZM22.2776 18.4761C21.8714 18.8823 21.3377 19.1054 20.7695 19.1054H4.22785C3.6623 19.1054 3.12595 18.8823 2.71971 18.4761C2.31347 18.0698 2.09044 17.5362 2.09044 16.968V6.5969H22.9042V16.968C22.9069 17.5335 22.6839 18.0698 22.2776 18.4761Z" fill="#1F1F1F"/>
<path d="M9.55676 17.3344V8.31479L13.1041 10.3619C13.4837 10.5823 13.6165 11.0682 13.3961 11.4505C13.1757 11.8302 12.6899 11.963 12.3075 11.7426L11.1499 11.0735V14.573L14.1794 12.8233L13.9803 12.7091C13.6006 12.4887 13.4678 12.0028 13.6882 11.6205C13.9086 11.2408 14.3945 11.108 14.7768 11.3284L17.3656 12.8233L9.55676 17.3344Z" fill="#1F1F1F"/>
</svg>
