<svg width="25" height="24" viewBox="0 0 25 24" fill="none" xmlns="http://www.w3.org/2000/svg">
<path d="M11.6 18C11.6 17.5029 11.1971 17.1 10.7 17.1C10.203 17.1 9.80005 17.5029 9.80005 18C9.80005 18.4971 10.203 18.9 10.7 18.9C11.1971 18.9 11.6 18.4971 11.6 18Z" fill="#1F1F1F"/>
<path fill-rule="evenodd" clip-rule="evenodd" d="M8.50687 6.65039H16.4931C20.5429 6.65039 22.5678 6.65039 23.7053 7.83459C24.8426 9.01878 24.575 10.8484 24.0398 14.5074L23.5322 17.9774C23.1125 20.8468 22.9027 22.2816 21.8261 23.1408C20.7494 24 19.1615 24 15.9855 24H9.01441C5.83856 24 4.25064 24 3.17401 23.1408C2.09738 22.2816 1.88751 20.8468 1.46778 17.9774L0.960213 14.5074C0.424977 10.8484 0.157364 9.0188 1.29478 7.83459C2.43221 6.65039 4.4571 6.65039 8.50687 6.65039ZM13.4 10.1999C13.4 9.70286 12.997 9.29996 12.5 9.29996C12.003 9.29996 11.6 9.70286 11.6 10.1999V15.4536C11.3185 15.3542 11.0156 15.2999 10.7 15.2999C9.20884 15.2999 8.00001 16.5088 8.00001 17.9999C8.00001 19.4912 9.20884 20.7 10.7 20.7C12.1911 20.7 13.4 19.4912 13.4 17.9999V13.5837C14.2042 14.236 15.214 14.6999 16.1 14.6999C16.597 14.6999 17 14.2971 17 13.7999C17 13.3029 16.597 12.8999 16.1 12.8999C15.7335 12.8999 15.0374 12.6376 14.4002 12.0723C13.7785 11.5207 13.4 10.8463 13.4 10.1999Z" fill="#1F1F1F"/>
<path opacity="0.4" d="M8.31142 8.75149e-06H16.6876C16.9665 -6.32489e-05 17.1804 -0.00011118 17.3674 0.0181769C18.6968 0.148222 19.7849 0.947498 20.2463 2.02414H4.75269C5.2141 0.947498 6.3022 0.148222 7.63158 0.0181769C7.81856 -0.00011118 8.03244 -6.32489e-05 8.31142 8.75149e-06Z" fill="#1F1F1F"/>
<path opacity="0.7" d="M5.67219 3.26721C4.00344 3.26721 2.63512 4.27492 2.17848 5.61177C2.16897 5.63964 2.15985 5.66766 2.15112 5.6958C2.6289 5.55111 3.12614 5.45659 3.6295 5.39206C4.92595 5.22585 6.56435 5.22593 8.46759 5.22604H16.7381C18.6413 5.22593 20.2798 5.22585 21.5762 5.39206C22.0796 5.45659 22.5768 5.55111 23.0546 5.6958C23.0459 5.66766 23.0367 5.63964 23.0272 5.61177C22.5706 4.27492 21.2022 3.26721 19.5335 3.26721H5.67219Z" fill="#1F1F1F"/>
</svg>
