<svg width="18" height="20" viewBox="0 0 18 20" fill="none" xmlns="http://www.w3.org/2000/svg">
<path d="M7.14591 1.2489C7.29532 0.879613 7.55161 0.563358 7.88193 0.340674C8.21224 0.11799 8.60154 -0.000976563 8.99991 -0.000976562C9.39827 -0.000976562 9.78757 0.11799 10.1179 0.340674C10.4482 0.563358 10.7045 0.879613 10.8539 1.2489C12.3327 1.65558 13.637 2.53646 14.5667 3.75624C15.4963 4.97601 15.9998 6.46724 15.9999 8.0009V12.6979L17.8319 15.4459C17.9324 15.5965 17.9901 15.7716 17.9989 15.9524C18.0077 16.1332 17.9672 16.313 17.8818 16.4727C17.7964 16.6323 17.6692 16.7657 17.5139 16.8588C17.3586 16.9518 17.181 17.0009 16.9999 17.0009H12.4649C12.3445 17.834 11.928 18.5958 11.2916 19.1468C10.6552 19.6978 9.84167 20.0011 8.99991 20.0011C8.15815 20.0011 7.34457 19.6978 6.7082 19.1468C6.07184 18.5958 5.65531 17.834 5.53491 17.0009H0.999906C0.818863 17.0009 0.641209 16.9518 0.485897 16.8588C0.330585 16.7657 0.203441 16.6323 0.118032 16.4727C0.0326219 16.313 -0.00784989 16.1332 0.000933708 15.9524C0.00971731 15.7716 0.0674268 15.5965 0.167906 15.4459L1.99991 12.6979V8.0009C1.99991 4.7769 4.17991 2.0609 7.14591 1.2489ZM7.58591 17.0009C7.68918 17.2935 7.88069 17.547 8.13403 17.7262C8.38737 17.9055 8.69007 18.0017 9.00041 18.0017C9.31074 18.0017 9.61344 17.9055 9.86678 17.7262C10.1201 17.547 10.3116 17.2935 10.4149 17.0009H7.58591ZM8.99991 3.0009C7.67382 3.0009 6.40205 3.52768 5.46437 4.46537C4.52669 5.40305 3.99991 6.67482 3.99991 8.0009V13.0009C3.99995 13.1984 3.94149 13.3916 3.83191 13.5559L2.86891 15.0009H15.1299L14.1669 13.5559C14.0577 13.3914 13.9996 13.1983 13.9999 13.0009V8.0009C13.9999 6.67482 13.4731 5.40305 12.5354 4.46537C11.5978 3.52768 10.326 3.0009 8.99991 3.0009Z" fill="#1F1F1F"/>
</svg>
