<svg width="45" height="45" viewBox="0 0 45 45" fill="none" xmlns="http://www.w3.org/2000/svg">
<g clip-path="url(#clip0_41_1542)">
<path d="M10.6647 41.1255H7.62865C6.95356 41.1255 6.40601 40.5781 6.40601 39.9028C6.40601 39.2276 6.95348 38.6802 7.62865 38.6802H10.6647C11.3398 38.6802 11.8874 39.2276 11.8874 39.9028C11.8874 40.5781 11.34 41.1255 10.6647 41.1255Z" fill="#1F1F1F"/>
<path d="M43.7773 41.1255H40.5608C39.8857 41.1255 39.3381 40.5781 39.3381 39.9028C39.3381 39.2276 39.8856 38.6802 40.5608 38.6802H43.7773C44.4524 38.6802 45 39.2276 45 39.9028C45 40.5781 44.4526 41.1255 43.7773 41.1255Z" fill="#1F1F1F"/>
<path d="M42.4343 40.9785H40.5607C39.8857 40.9785 39.3381 40.4311 39.3381 39.7559C39.3381 39.0806 39.8856 38.5332 40.5607 38.5332H41.2117V37.9954C41.2117 35.4994 40.1474 33.4841 38.1337 32.1673C36.6674 31.2084 34.8055 30.7016 32.7497 30.7016H14.9324C13.3051 30.7016 11.8812 31.8573 11.5465 33.4497L10.4781 38.5333H10.8454C11.5204 38.5333 12.068 39.0807 12.068 39.756C12.068 40.4312 11.5205 40.9786 10.8454 40.9786H8.9717C8.60335 40.9786 8.2546 40.8126 8.02231 40.5265C7.79028 40.2404 7.69931 39.8649 7.77525 39.5045L9.15346 32.9468C9.72475 30.229 12.1551 28.2563 14.9324 28.2563H32.7497C35.2822 28.2563 37.6068 28.901 39.472 30.1209C42.1706 31.8857 43.6569 34.6823 43.6569 37.9956V39.756C43.6569 40.4311 43.1096 40.9785 42.4343 40.9785Z" fill="#1F1F1F"/>
<path d="M28.6115 40.9785H19.2817C18.6066 40.9785 18.0591 40.4311 18.0591 39.7559C18.0591 39.0806 18.6066 38.5332 19.2817 38.5332H28.6115C29.2866 38.5332 29.8341 39.0806 29.8341 39.7559C29.8341 40.4311 29.2866 40.9785 28.6115 40.9785Z" fill="#1F1F1F"/>
<path d="M32.75 29.479C34.5995 29.479 36.3275 29.8582 37.7973 30.5751L36.084 23.149C35.6068 21.3382 33.9693 20.0762 32.0966 20.0762H21.2032C19.5352 20.0762 18.0314 21.0812 17.3934 22.6224L14.8379 29.4791H32.75V29.479Z" fill="#BEBEBE"/>
<path d="M37.7972 31.7976C37.6149 31.7976 37.4316 31.7569 37.2614 31.6739C35.9568 31.0377 34.3968 30.7015 32.75 30.7015H14.8378C14.4373 30.7015 14.0621 30.5053 13.8336 30.1763C13.6053 29.8473 13.5523 29.4273 13.6923 29.052L16.2478 22.1953C16.2528 22.1818 16.2582 22.1681 16.2638 22.1547C17.0939 20.1492 19.0328 18.8535 21.2031 18.8535H32.0967C34.5225 18.8535 36.6483 20.4917 37.2662 22.8374C37.2694 22.8496 37.2724 22.8619 37.2753 22.8741L38.9886 30.3001C39.0945 30.7592 38.9271 31.2384 38.5582 31.5318C38.3378 31.7073 38.0685 31.7976 37.7972 31.7976ZM16.5984 28.2563H32.75C33.9089 28.2563 35.0394 28.3957 36.1021 28.6656L34.8973 23.4437C34.5563 22.1797 33.4072 21.2986 32.0967 21.2986H21.2032C20.0322 21.2986 18.9853 21.9939 18.5307 23.0716L16.5984 28.2563Z" fill="#1F1F1F"/>
<path d="M28.6116 35.8402C27.9365 35.8402 27.3889 35.2928 27.3889 34.6175V20.5439C27.3889 19.8687 27.9364 19.3213 28.6116 19.3213C29.2867 19.3213 29.8342 19.8687 29.8342 20.5439V34.6176C29.8342 35.2928 29.2867 35.8402 28.6116 35.8402Z" fill="#1F1F1F"/>
<path d="M37.1333 43.008C39.1334 43.008 40.7548 41.3865 40.7548 39.3864C40.7548 37.3863 39.1334 35.7649 37.1333 35.7649C35.1331 35.7649 33.5117 37.3863 33.5117 39.3864C33.5117 41.3865 35.1331 43.008 37.1333 43.008Z" fill="#BEBEBE"/>
<path d="M37.1331 44.2306C34.4619 44.2306 32.2888 42.0575 32.2888 39.3865C32.2888 36.7153 34.4619 34.5422 37.1331 34.5422C39.8042 34.5422 41.9772 36.7153 41.9772 39.3865C41.9772 42.0575 39.804 44.2306 37.1331 44.2306ZM37.1331 36.9874C35.8103 36.9874 34.7341 38.0636 34.7341 39.3864C34.7341 40.7093 35.8104 41.7853 37.1331 41.7853C38.4558 41.7853 39.532 40.7092 39.532 39.3864C39.532 38.0637 38.4558 36.9874 37.1331 36.9874Z" fill="#1F1F1F"/>
<path d="M14.2153 43.008C16.2154 43.008 17.8368 41.3865 17.8368 39.3864C17.8368 37.3863 16.2154 35.7649 14.2153 35.7649C12.2152 35.7649 10.5938 37.3863 10.5938 39.3864C10.5938 41.3865 12.2152 43.008 14.2153 43.008Z" fill="#BEBEBE"/>
<path d="M14.2157 44.2306C11.5446 44.2306 9.37158 42.0575 9.37158 39.3865C9.37158 36.7153 11.5447 34.5422 14.2157 34.5422C16.8867 34.5422 19.0598 36.7153 19.0598 39.3865C19.0599 42.0575 16.8867 44.2306 14.2157 44.2306ZM14.2157 36.9874C12.8929 36.9874 11.8168 38.0636 11.8168 39.3864C11.8168 40.7093 12.8929 41.7853 14.2157 41.7853C15.5384 41.7853 16.6146 40.7092 16.6146 39.3864C16.6146 38.0637 15.5385 36.9874 14.2157 36.9874Z" fill="#1F1F1F"/>
<path d="M16.6275 17.5363H1.22265C0.547471 17.5363 0 16.989 0 16.3138V1.99218C0 1.31691 0.547471 0.769531 1.22265 0.769531H16.6276C17.3027 0.769531 17.8502 1.31691 17.8502 1.99218V16.3138C17.8501 16.989 17.3027 17.5363 16.6275 17.5363ZM2.44521 15.0911H15.4049V3.21482H2.44521V15.0911Z" fill="#1F1F1F"/>
<path d="M9.08461 4.94995H6.80807C6.33996 4.94995 5.98682 5.25098 5.98682 5.65026V12.6447C5.98682 13.0634 6.41493 13.3559 7.02797 13.3559C7.64109 13.3559 8.0693 13.0635 8.0693 12.6447V10.4525H8.97466C10.8105 10.4525 11.8634 9.45575 11.8634 7.7178V7.66278C11.8634 5.91341 10.8765 4.94995 9.08461 4.94995ZM8.97466 8.76607H8.0693V6.81235H8.97466C9.5173 6.81235 9.78106 7.11215 9.78106 7.7287V7.84964C9.78106 8.46628 9.51738 8.76607 8.97466 8.76607Z" fill="#1F1F1F"/>
<path d="M8.92504 27.82C8.24995 27.82 7.70239 27.2726 7.70239 26.5973V16.4731C7.70239 15.7979 8.24986 15.2505 8.92504 15.2505C9.60021 15.2505 10.1477 15.7979 10.1477 16.4731V26.5973C10.1476 27.2726 9.60013 27.82 8.92504 27.82Z" fill="#1F1F1F"/>
</g>
<defs>
<clipPath id="clip0_41_1542">
<rect width="45" height="45" fill="white"/>
</clipPath>
</defs>
</svg>
