<svg width="25" height="24" viewBox="0 0 25 24" fill="none" xmlns="http://www.w3.org/2000/svg">
<mask id="path-1-inside-1_41_1496" fill="white">
<path d="M15.5673 18.4502C16.1885 17.8175 15.8533 16.3643 14.8385 14.6855C15.2073 14.6259 15.5521 14.5349 15.8129 14.3954C16.7513 13.8943 17.3849 12.9811 17.8645 12.0364C18.3801 11.023 18.7261 9.9091 19.3989 8.98634C19.5125 8.83035 19.6261 8.69048 19.7393 8.5589C21.1909 8.7389 22.3498 9.06166 22.3498 9.06166L22.7926 7.89766C22.2337 7.69016 21.6606 7.52598 21.0781 7.40648C21.4349 7.19669 21.6678 7.13131 21.6678 7.13131L21.2481 5.95779C20.5753 6.252 20.0293 6.68607 19.5721 7.20579C17.8633 7.1069 16.1425 7.45903 14.7849 8.54814C13.7641 9.36745 13.0745 10.5033 12.4257 11.6396C11.8508 11.056 11.2386 10.5131 10.5933 10.0146C10.7157 9.80648 10.8469 9.61945 10.9881 9.47503C11.8413 8.60607 12.9669 8.05035 13.7053 7.056C15.2573 4.968 14.1221 1.6949 12.8453 0C12.6165 0.228 12.2381 0.560276 11.9533 0.822621C13.3105 2.26055 14.2597 4.77807 13.1961 6.65917C12.6017 7.71062 11.5033 8.37021 10.7353 9.27352C10.6025 9.43034 10.4837 9.62897 10.3761 9.84828C8.36766 8.35821 6.52444 7.75862 5.79404 8.50262C5.72151 8.57938 5.66177 8.66802 5.61724 8.76497L5.61444 8.76207L5.59484 8.82124C5.56764 8.88538 5.54284 8.952 5.52604 9.02483L0.5 24L15.1649 18.696L15.1609 18.6919C15.3185 18.6393 15.4573 18.5619 15.5673 18.4502ZM3.41722 22.0684L2.19321 21.4783L3.01922 19.0163L6.80764 20.8419L3.41722 22.0684ZM10.1977 19.6159L3.84602 16.5542L4.67203 14.0926L9.41846 16.5571C6.58524 14.6495 5.49804 11.6301 5.49804 11.6301L5.78044 10.7888C6.28244 12.1026 7.38685 13.7388 8.90446 15.283C10.4349 16.8414 12.0569 17.9702 13.3533 18.4746L10.1977 19.6159ZM12.6373 11.8614C13.3005 10.8778 13.9841 9.8851 14.9345 9.17876C15.8393 8.50593 17.3081 8.38303 18.7005 8.46372C18.2301 9.31366 17.8825 10.2567 17.5705 11.1625C17.1933 12.259 16.6877 13.3961 15.7237 14.0686C15.4637 14.2498 15.0993 14.3822 14.7101 14.4803C14.1753 13.6324 13.4737 12.7361 12.6373 11.8614Z"/>
</mask>
<path d="M15.5673 18.4502C16.1885 17.8175 15.8533 16.3643 14.8385 14.6855C15.2073 14.6259 15.5521 14.5349 15.8129 14.3954C16.7513 13.8943 17.3849 12.9811 17.8645 12.0364C18.3801 11.023 18.7261 9.9091 19.3989 8.98634C19.5125 8.83035 19.6261 8.69048 19.7393 8.5589C21.1909 8.7389 22.3498 9.06166 22.3498 9.06166L22.7926 7.89766C22.2337 7.69016 21.6606 7.52598 21.0781 7.40648C21.4349 7.19669 21.6678 7.13131 21.6678 7.13131L21.2481 5.95779C20.5753 6.252 20.0293 6.68607 19.5721 7.20579C17.8633 7.1069 16.1425 7.45903 14.7849 8.54814C13.7641 9.36745 13.0745 10.5033 12.4257 11.6396C11.8508 11.056 11.2386 10.5131 10.5933 10.0146C10.7157 9.80648 10.8469 9.61945 10.9881 9.47503C11.8413 8.60607 12.9669 8.05035 13.7053 7.056C15.2573 4.968 14.1221 1.6949 12.8453 0C12.6165 0.228 12.2381 0.560276 11.9533 0.822621C13.3105 2.26055 14.2597 4.77807 13.1961 6.65917C12.6017 7.71062 11.5033 8.37021 10.7353 9.27352C10.6025 9.43034 10.4837 9.62897 10.3761 9.84828C8.36766 8.35821 6.52444 7.75862 5.79404 8.50262C5.72151 8.57938 5.66177 8.66802 5.61724 8.76497L5.61444 8.76207L5.59484 8.82124C5.56764 8.88538 5.54284 8.952 5.52604 9.02483L0.5 24L15.1649 18.696L15.1609 18.6919C15.3185 18.6393 15.4573 18.5619 15.5673 18.4502ZM3.41722 22.0684L2.19321 21.4783L3.01922 19.0163L6.80764 20.8419L3.41722 22.0684ZM10.1977 19.6159L3.84602 16.5542L4.67203 14.0926L9.41846 16.5571C6.58524 14.6495 5.49804 11.6301 5.49804 11.6301L5.78044 10.7888C6.28244 12.1026 7.38685 13.7388 8.90446 15.283C10.4349 16.8414 12.0569 17.9702 13.3533 18.4746L10.1977 19.6159ZM12.6373 11.8614C13.3005 10.8778 13.9841 9.8851 14.9345 9.17876C15.8393 8.50593 17.3081 8.38303 18.7005 8.46372C18.2301 9.31366 17.8825 10.2567 17.5705 11.1625C17.1933 12.259 16.6877 13.3961 15.7237 14.0686C15.4637 14.2498 15.0993 14.3822 14.7101 14.4803C14.1753 13.6324 13.4737 12.7361 12.6373 11.8614Z" fill="#1F1F1F"/>
<path d="M15.5673 18.4502L25.8997 28.6233L25.9068 28.6161L25.9138 28.6089L15.5673 18.4502ZM14.8385 14.6855L12.5258 0.371144L-8.68622 3.7983L2.42955 22.1867L14.8385 14.6855ZM15.8129 14.3954L8.9828 1.60484L8.97587 1.60854L15.8129 14.3954ZM17.8645 12.0364L4.94112 5.46103L4.93531 5.47247L17.8645 12.0364ZM19.3989 8.98634L31.1153 17.529L31.1204 17.522L19.3989 8.98634ZM19.7393 8.5589L21.5237 -5.8309L13.8138 -6.78693L8.74717 -0.897433L19.7393 8.5589ZM22.3498 9.06166L18.4592 23.03L31.1998 26.5786L35.9023 14.2172L22.3498 9.06166ZM22.7926 7.89766L36.3451 13.0532L41.5421 -0.608382L27.8393 -5.69574L22.7926 7.89766ZM21.0781 7.40648L13.7287 -5.09295L-18.7923 14.0288L18.1641 21.6106L21.0781 7.40648ZM21.6678 7.13131L25.5882 21.0912L40.5554 16.8879L35.3212 2.24938L21.6678 7.13131ZM21.2481 5.95779L34.9016 1.07586L29.6715 -13.5513L15.4387 -7.32754L21.2481 5.95779ZM19.5721 7.20579L18.7344 21.6816L25.7906 22.0899L30.4591 16.7831L19.5721 7.20579ZM14.7849 8.54814L5.71151 -2.76219L5.70884 -2.76005L14.7849 8.54814ZM12.4257 11.6396L2.09571 21.8151L15.5271 35.4504L25.0176 18.8295L12.4257 11.6396ZM10.5933 10.0146L-1.90565 2.66431L-8.38299 13.6788L1.72942 21.4899L10.5933 10.0146ZM10.9881 9.47503L0.641635 -0.683763L0.630981 -0.672912L0.620349 -0.662039L10.9881 9.47503ZM13.7053 7.056L2.06798 -1.59402L2.0641 -1.5888L13.7053 7.056ZM12.8453 0L24.4268 -8.72463L14.4065 -22.026L2.61025 -10.271L12.8453 0ZM11.9533 0.822621L2.12933 -9.84228L-8.66594 0.101765L1.40853 10.7754L11.9533 0.822621ZM13.1961 6.65917L0.574009 -0.477565L0.573483 -0.476635L13.1961 6.65917ZM10.7353 9.27352L-0.31169 -0.118745L-0.321018 -0.107774L-0.330325 -0.0967842L10.7353 9.27352ZM10.3761 9.84828L1.73646 21.4933L15.7227 31.8699L23.3937 16.2351L10.3761 9.84828ZM5.79404 8.50262L-4.55311 -1.65546L-4.65014 -1.55662L-4.74526 -1.45595L5.79404 8.50262ZM5.61724 8.76497L-4.80806 18.8428L9.93719 34.0964L18.7934 14.8179L5.61724 8.76497ZM5.61444 8.76207L16.0397 -1.31579L-0.615302 -18.545L-8.15012 4.2028L5.61444 8.76207ZM5.59484 8.82124L18.944 14.4825L19.1741 13.9399L19.3594 13.3805L5.59484 8.82124ZM5.52604 9.02483L19.2725 13.6385L19.4966 12.9706L19.655 12.2841L5.52604 9.02483ZM0.5 24L-13.2464 19.3864L-22.7981 47.8457L5.4317 37.6356L0.5 24ZM15.1649 18.696L20.0966 32.3316L41.1519 24.7163L25.5902 8.61814L15.1649 18.696ZM15.1609 18.6919L10.5742 4.93643L-11.2641 12.2184L4.73561 28.7697L15.1609 18.6919ZM3.41722 22.0684L-2.87945 35.1299L2.61448 37.7784L8.34976 35.7037L3.41722 22.0684ZM2.19321 21.4783L-11.5538 16.8663L-15.6204 28.9877L-4.10346 34.5398L2.19321 21.4783ZM3.01922 19.0163L9.31402 5.95391L-5.49799 -1.18405L-10.7278 14.4043L3.01922 19.0163ZM6.80764 20.8419L11.7402 34.4772L44.1636 22.748L13.1024 7.77956L6.80764 20.8419ZM10.1977 19.6159L3.90158 32.6776L9.39463 35.3254L15.1291 33.2515L10.1977 19.6159ZM3.84602 16.5542L-9.90072 11.9415L-13.9684 24.0638L-2.45007 29.616L3.84602 16.5542ZM4.67203 14.0926L11.354 1.22392L-3.6843 -6.5846L-9.07471 9.47985L4.67203 14.0926ZM9.41846 16.5571L2.73652 29.4257L17.5167 4.52928L9.41846 16.5571ZM5.49804 11.6301L-8.24809 7.01554L-9.8532 11.7969L-8.14454 16.5423L5.49804 11.6301ZM5.78044 10.7888L19.3253 5.61329L4.89788 -32.1447L-7.96569 6.1743L5.78044 10.7888ZM8.90446 15.283L19.2498 5.12313L19.2464 5.11966L8.90446 15.283ZM13.3533 18.4746L18.2847 32.1103L54.6167 18.9707L18.6111 4.96145L13.3533 18.4746ZM12.6373 11.8614L0.614924 3.75504L-5.91518 13.4397L2.15707 21.8821L12.6373 11.8614ZM14.9345 9.17876L23.5838 20.8166L23.5869 20.8143L14.9345 9.17876ZM18.7005 8.46372L31.3871 15.4852L42.547 -4.67871L19.5394 -6.01199L18.7005 8.46372ZM17.5705 11.1625L3.86103 6.44022L3.85908 6.44589L17.5705 11.1625ZM15.7237 14.0686L24.0156 25.9637L24.0191 25.9613L15.7237 14.0686ZM14.7101 14.4803L2.44602 22.2161L8.05612 31.1101L18.253 28.5408L14.7101 14.4803ZM25.9138 28.6089C31.341 23.0814 30.4863 16.3302 30.024 14.063C29.4398 11.1977 28.2366 8.82058 27.2475 7.18432L2.42955 22.1867C2.39559 22.1305 2.28603 21.9437 2.14815 21.6232C2.02021 21.3258 1.78531 20.7229 1.60878 19.8573C1.41248 18.8946 0.414844 13.1863 5.22078 8.2915L25.9138 28.6089ZM17.1512 28.9999C18.1299 28.8418 20.3111 28.4329 22.6499 27.1824L8.97587 1.60854C9.98251 1.07031 10.8366 0.786049 11.3419 0.640072C11.873 0.486643 12.2884 0.40949 12.5258 0.371144L17.1512 28.9999ZM22.643 27.1861C27.5553 24.5629 29.8855 20.3894 30.7937 18.6004L4.93531 5.47247C4.98318 5.37817 5.24962 4.85686 5.80166 4.18413C6.37497 3.48549 7.39779 2.45123 8.9828 1.60484L22.643 27.1861ZM30.7879 18.6118C31.0961 18.006 31.3393 17.4639 31.4906 17.1214C31.5629 16.9578 31.643 16.7739 31.6844 16.6792C31.7362 16.5606 31.7657 16.4939 31.7878 16.4451C31.834 16.3427 31.7982 16.4297 31.7045 16.603C31.6058 16.7856 31.4139 17.1194 31.1153 17.529L7.68259 0.44368C6.45255 2.13069 5.7105 3.7286 5.35778 4.50966C5.22114 4.81225 4.9758 5.37552 4.96375 5.4028C4.88413 5.58302 4.89071 5.56011 4.94112 5.46103L30.7879 18.6118ZM31.1204 17.522C30.9501 17.7558 30.8069 17.9275 30.7315 18.0152L8.74717 -0.897433C8.44533 -0.546574 8.07495 -0.0951326 7.67749 0.450669L31.1204 17.522ZM17.955 22.9487C18.1247 22.9697 18.3229 23.0062 18.4867 23.042C18.5589 23.0579 18.602 23.0686 18.6049 23.0694C18.6059 23.0696 18.5953 23.067 18.5719 23.0607C18.5601 23.0576 18.545 23.0535 18.5263 23.0485C18.517 23.0459 18.5067 23.0431 18.4956 23.04C18.49 23.0385 18.4842 23.0369 18.4781 23.0352C18.4751 23.0344 18.472 23.0335 18.4688 23.0326C18.4673 23.0322 18.4657 23.0318 18.4641 23.0313C18.4633 23.0311 18.4621 23.0308 18.4617 23.0306C18.4604 23.0303 18.4592 23.03 22.3498 9.06166C26.2403 -4.90665 26.2391 -4.907 26.2378 -4.90734C26.2374 -4.90746 26.2362 -4.9078 26.2353 -4.90804C26.2337 -4.9085 26.232 -4.90897 26.2303 -4.90945C26.2268 -4.9104 26.2233 -4.91137 26.2197 -4.91237C26.2125 -4.91436 26.205 -4.91643 26.1972 -4.91859C26.1816 -4.9229 26.1646 -4.92754 26.1465 -4.93249C26.1101 -4.94239 26.0686 -4.95356 26.0224 -4.96587C25.9299 -4.99045 25.8175 -5.01972 25.6871 -5.05256C25.4274 -5.11795 25.09 -5.19912 24.6911 -5.28649C23.9126 -5.45699 22.8055 -5.67195 21.5237 -5.8309L17.955 22.9487ZM35.9023 14.2172L36.3451 13.0532L9.24006 2.74209L8.79726 3.90609L35.9023 14.2172ZM27.8393 -5.69574C26.588 -6.1603 25.3021 -6.52895 23.9922 -6.79767L18.1641 21.6106C18.0191 21.5809 17.8793 21.5406 17.7458 21.4911L27.8393 -5.69574ZM28.4276 19.9059C27.9855 20.1659 27.5262 20.3916 27.0543 20.587C26.8182 20.6848 26.5782 20.7753 26.3343 20.859C26.2124 20.9009 26.0892 20.9412 25.965 20.9798C25.9028 20.9992 25.8403 21.0181 25.7776 21.0367C25.7462 21.046 25.7147 21.0551 25.6832 21.0642C25.6674 21.0688 25.6516 21.0733 25.6358 21.0778C25.6279 21.0801 25.6199 21.0823 25.612 21.0845C25.6081 21.0857 25.6041 21.0868 25.6001 21.0879C25.5982 21.0885 25.5952 21.0893 25.5942 21.0896C25.5912 21.0904 25.5882 21.0912 21.6678 7.13131C17.7473 -6.82862 17.7443 -6.82779 17.7413 -6.82695C17.7403 -6.82667 17.7373 -6.82583 17.7353 -6.82527C17.7314 -6.82415 17.7274 -6.82303 17.7234 -6.8219C17.7154 -6.81964 17.7074 -6.81738 17.6994 -6.81509C17.6833 -6.81053 17.6672 -6.80591 17.651 -6.80123C17.6185 -6.79187 17.5857 -6.78229 17.5525 -6.77248C17.4862 -6.75285 17.4184 -6.73229 17.3492 -6.71076C17.2108 -6.6677 17.0667 -6.6207 16.9173 -6.56941C16.6186 -6.46687 16.2981 -6.34691 15.9592 -6.2066C15.2817 -5.92605 14.5276 -5.5627 13.7287 -5.09295L28.4276 19.9059ZM35.3212 2.24938L34.9016 1.07586L7.5947 10.8397L8.0143 12.0132L35.3212 2.24938ZM15.4387 -7.32754C12.5226 -6.05238 10.3097 -4.2181 8.68519 -2.37149L30.4591 16.7831C29.749 17.5902 28.6281 18.5564 27.0576 19.2431L15.4387 -7.32754ZM20.4099 -7.26998C16.3241 -7.50645 10.6842 -6.75137 5.71151 -2.76219L23.8583 19.8585C21.6008 21.6694 19.4025 21.7202 18.7344 21.6816L20.4099 -7.26998ZM5.70884 -2.76005C2.28373 -0.0110234 0.416341 3.42948 -0.166207 4.44971L25.0176 18.8295C25.1542 18.5902 25.2258 18.4693 25.2716 18.395C25.3139 18.3263 25.2955 18.3609 25.2262 18.4569C25.0934 18.641 24.6548 19.2192 23.861 19.8563L5.70884 -2.76005ZM22.7557 1.46404C21.724 0.416767 20.6223 -0.560657 19.4571 -1.46066L1.72942 21.4899C1.85499 21.5869 1.97761 21.6952 2.09571 21.8151L22.7557 1.46404ZM23.0922 17.3649C22.9741 17.5658 22.788 17.8658 22.5291 18.2235C22.2745 18.5752 21.8887 19.0671 21.3558 19.6121L0.620349 -0.662039C-0.660717 0.648176 -1.47576 1.9333 -1.90565 2.66431L23.0922 17.3649ZM21.3345 19.6338C21.1549 19.8168 21.0046 19.9544 20.9035 20.0435C20.8038 20.1312 20.7388 20.1833 20.7326 20.1883C20.7304 20.19 20.7547 20.1706 20.8512 20.0965C20.9058 20.0547 21.1132 19.8965 21.2656 19.7785C21.8781 19.3044 23.7119 17.902 25.3465 15.7008L2.0641 -1.5888C2.54535 -2.23685 2.99229 -2.68175 3.25565 -2.92478C3.4968 -3.14732 3.65076 -3.25943 3.51385 -3.15344C3.42605 -3.08548 3.39152 -3.05974 3.20489 -2.91664C3.06024 -2.80572 2.8441 -2.63924 2.60492 -2.4477C2.13185 -2.06885 1.41408 -1.47047 0.641635 -0.683763L21.3345 19.6338ZM25.3426 15.706C29.449 10.1815 29.2512 4.1419 28.5729 0.630538C27.8785 -2.96427 26.3077 -6.22782 24.4268 -8.72463L1.2638 8.72463C0.659703 7.92272 0.294858 7.14317 0.0992725 6.13064C-0.0801944 5.20155 -0.486356 1.84246 2.06798 -1.59402L25.3426 15.706ZM2.61025 -10.271C2.66345 -10.324 2.70279 -10.362 2.72285 -10.3812C2.73375 -10.3916 2.74186 -10.3993 2.74678 -10.404C2.7493 -10.4064 2.75119 -10.4081 2.75242 -10.4093C2.75365 -10.4104 2.75431 -10.4111 2.75435 -10.4111C2.75437 -10.4111 2.75244 -10.4093 2.74828 -10.4055C2.74415 -10.4016 2.73834 -10.3963 2.73063 -10.3892C2.71481 -10.3747 2.6941 -10.3558 2.66662 -10.3308C2.602 -10.272 2.54932 -10.2245 2.44952 -10.1342C2.36554 -10.0582 2.24946 -9.95293 2.12933 -9.84228L21.7772 11.4875C21.7995 11.467 21.8375 11.4323 21.9117 11.3651C21.9701 11.3123 22.0798 11.2133 22.1739 11.1276C22.2742 11.0365 22.4051 10.9169 22.5445 10.7868C22.6774 10.6627 22.8691 10.4815 23.0803 10.271L2.61025 -10.271ZM1.40853 10.7754C0.504933 9.81808 -0.169583 8.67692 -0.542737 7.25478C-0.922691 5.80672 -1.26803 2.78028 0.574009 -0.477565L25.8182 13.7959C28.7238 8.65696 28.4357 3.43121 27.5077 -0.105362C26.5866 -3.61602 24.7588 -6.73491 22.498 -9.13018L1.40853 10.7754ZM0.573483 -0.476635C1.04622 -1.31286 1.52406 -1.90266 1.82229 -2.23881C1.97219 -2.40777 2.09077 -2.52823 2.15486 -2.5917C2.21721 -2.65346 2.24693 -2.67988 2.21437 -2.64994C2.1707 -2.60977 2.12607 -2.56961 1.98624 -2.44357C1.87215 -2.34073 1.68081 -2.16817 1.47396 -1.97539C1.06736 -1.59642 0.398646 -0.954227 -0.31169 -0.118745L21.7822 18.6658C21.4559 19.0496 21.2125 19.2706 21.2464 19.239C21.2598 19.2265 21.2926 19.1964 21.4031 19.0968C21.4879 19.0203 21.6684 18.8582 21.8472 18.6937C22.4788 18.1127 24.3402 16.4103 25.8187 13.795L0.573483 -0.476635ZM-0.330325 -0.0967842C-1.52477 1.31376 -2.25265 2.66881 -2.64153 3.46142L23.3937 16.2351C23.2856 16.4554 23.1176 16.7772 22.8805 17.1609C22.6469 17.5388 22.2947 18.0606 21.8009 18.6438L-0.330325 -0.0967842ZM19.0157 -1.79677C17.2321 -3.12 14.761 -4.64603 11.8073 -5.54026C9.97679 -6.09446 1.8778 -8.20607 -4.55311 -1.65546L16.1412 18.6607C13.3059 21.5488 9.96146 22.4575 7.71912 22.6411C5.62587 22.8125 4.07835 22.4197 3.40426 22.2156C2.05688 21.8077 1.51158 21.3265 1.73646 21.4933L19.0157 -1.79677ZM-4.74526 -1.45595C-5.91511 -0.217882 -6.86119 1.19313 -7.55896 2.71204L18.7934 14.8179C18.1847 16.1429 17.3581 17.3766 16.3333 18.4612L-4.74526 -1.45595ZM16.0425 -1.31289L16.0397 -1.31579L-4.81086 18.8399L-4.80806 18.8428L16.0425 -1.31289ZM-8.15012 4.2028L-8.16972 4.26197L19.3594 13.3805L19.379 13.3213L-8.15012 4.2028ZM-7.75434 3.16C-7.94601 3.61197 -8.32074 4.54237 -8.6029 5.76552L19.655 12.2841C19.4064 13.3616 19.0813 14.1588 18.944 14.4825L-7.75434 3.16ZM-8.22039 4.41119L-13.2464 19.3864L14.2464 28.6136L19.2725 13.6385L-8.22039 4.41119ZM5.4317 37.6356L20.0966 32.3316L10.2332 5.06045L-4.4317 10.3644L5.4317 37.6356ZM25.5902 8.61814L25.5862 8.61401L4.73561 28.7697L4.73961 28.7739L25.5902 8.61814ZM19.7476 32.4473C21.516 31.8576 23.8154 30.7402 25.8997 28.6233L5.23488 8.27716C7.09921 6.38362 9.12103 5.42098 10.5742 4.93643L19.7476 32.4473ZM9.71389 9.00695L8.48988 8.41688L-4.10346 34.5398L-2.87945 35.1299L9.71389 9.00695ZM15.9402 26.0904L16.7662 23.6283L-10.7278 14.4043L-11.5538 16.8663L15.9402 26.0904ZM-3.27558 32.0786L0.512847 33.9043L13.1024 7.77956L9.31402 5.95391L-3.27558 32.0786ZM1.8751 7.20668L-1.51532 8.43316L8.34976 35.7037L11.7402 34.4772L1.8751 7.20668ZM16.4938 6.55412L10.1421 3.49246L-2.45007 29.616L3.90158 32.6776L16.4938 6.55412ZM17.5928 21.1669L18.4188 18.7053L-9.07471 9.47985L-9.90072 11.9415L17.5928 21.1669ZM-2.00992 26.9612L2.73652 29.4257L16.1004 3.68848L11.354 1.22392L-2.00992 26.9612ZM17.5167 4.52928C18.2763 5.04073 18.592 5.5347 18.6632 5.6477C18.7233 5.74312 18.7822 5.8508 18.8489 5.99347C18.8839 6.06853 18.9252 6.1619 18.9728 6.27842C18.9967 6.33703 19.0226 6.40234 19.0505 6.47507C19.0645 6.51147 19.079 6.54982 19.094 6.59021C19.1015 6.61041 19.1091 6.63114 19.1169 6.6524C19.1208 6.66303 19.1247 6.67379 19.1286 6.68469C19.1306 6.69015 19.1326 6.69563 19.1346 6.70115C19.1356 6.70391 19.1371 6.70808 19.1376 6.70946C19.1391 6.71363 19.1406 6.71781 5.49804 11.6301C-8.14454 16.5423 -8.14302 16.5465 -8.1415 16.5508C-8.14098 16.5522 -8.13945 16.5564 -8.13842 16.5593C-8.13636 16.565 -8.13428 16.5707 -8.13216 16.5765C-8.12794 16.5882 -8.12362 16.6 -8.1192 16.6121C-8.11036 16.6363 -8.10112 16.6614 -8.09147 16.6874C-8.07218 16.7393 -8.05125 16.7948 -8.02865 16.8538C-7.98347 16.9717 -7.93143 17.1038 -7.87222 17.2486C-7.75407 17.5378 -7.60578 17.8819 -7.42451 18.2699C-7.06545 19.0383 -6.55767 20.0201 -5.87159 21.1088C-4.54847 23.2084 -2.27261 26.1659 1.32022 28.5849L17.5167 4.52928ZM19.2442 16.2446L19.5266 15.4034L-7.96569 6.1743L-8.24809 7.01554L19.2442 16.2446ZM-7.76445 15.9644C-6.33556 19.7039 -3.86229 22.979 -1.43749 25.4464L19.2464 5.11966C19.1464 5.01791 19.0644 4.92584 19.0014 4.84999C18.9376 4.77325 18.9043 4.72621 18.8976 4.71657C18.8893 4.70446 18.9262 4.75616 18.9928 4.87819C19.0558 4.99351 19.1824 5.23933 19.3253 5.61329L-7.76445 15.9644ZM-1.44089 25.4429C0.992115 27.9204 4.28081 30.5035 8.09552 31.9878L18.6111 4.96145C19.0202 5.12065 19.2921 5.26409 19.4239 5.33803C19.496 5.37856 19.547 5.40996 19.5774 5.42938C19.6082 5.44897 19.6234 5.45981 19.6241 5.4603C19.6249 5.46091 19.6146 5.45358 19.5941 5.43751C19.5738 5.42152 19.5456 5.39863 19.5105 5.36853C19.4392 5.30725 19.35 5.22516 19.2498 5.12313L-1.44089 25.4429ZM8.42191 4.83895L5.26629 5.98019L15.1291 33.2515L18.2847 32.1103L8.42191 4.83895ZM24.6596 19.9677C24.8225 19.7262 24.9031 19.6087 24.9635 19.5237C25.0178 19.4473 25.0042 19.4705 24.9399 19.5498C24.8194 19.6983 24.3729 20.2302 23.5838 20.8166L6.28521 -2.4591C3.04713 -0.0525523 1.0968 3.04037 0.614924 3.75504L24.6596 19.9677ZM23.5869 20.8143C21.4698 22.3886 19.5332 22.7593 18.9265 22.8564C18.53 22.9199 18.2428 22.9355 18.0975 22.9399C17.9462 22.9446 17.8643 22.9396 17.8617 22.9394L19.5394 -6.01199C18.2138 -6.08881 16.3758 -6.10447 14.3429 -5.77906C12.4275 -5.47247 9.30397 -4.7039 6.28212 -2.4568L23.5869 20.8143ZM6.01398 1.44222C4.88431 3.48332 4.19724 5.46413 3.86103 6.44022L31.28 15.8847C31.3415 15.7061 31.3891 15.5715 31.4297 15.4606C31.4698 15.3508 31.4966 15.2825 31.5123 15.2437C31.5279 15.2052 31.5271 15.2097 31.5096 15.2472C31.4921 15.2847 31.4521 15.3677 31.3871 15.4852L6.01398 1.44222ZM3.85908 6.44589C3.78716 6.65495 3.92741 6.18162 4.33415 5.48255C4.76947 4.73435 5.71021 3.37426 7.42831 2.17585L24.0191 25.9613C29.1276 22.398 30.8392 17.1661 31.282 15.8791L3.85908 6.44589ZM7.43185 2.17338C8.49218 1.43425 9.41802 1.02504 9.93986 0.818978C10.495 0.599785 10.9302 0.479497 11.1672 0.419765L18.253 28.5408C19.2186 28.2975 21.6009 27.647 24.0156 25.9637L7.43185 2.17338ZM26.9742 6.74449C25.8691 4.99247 24.5503 3.33913 23.1175 1.84065L2.15707 21.8821C2.26761 21.9977 2.35015 22.095 2.40487 22.1643C2.46112 22.2356 2.47143 22.2563 2.44602 22.2161L26.9742 6.74449Z" fill="#1F1F1F" mask="url(#path-1-inside-1_41_1496)"/>
<path d="M11.0064 2.06983C11.0294 2.07491 11.0492 2.08197 11.0662 2.09076L10.9765 2.20647L11.0064 2.06983ZM11.0064 2.06983C10.8386 2.03304 10.6839 2.01312 10.5436 2.00858C10.4644 2.00602 10.3898 2.00835 10.32 2.01532L10.054 3.39632L10.022 3.56238L9.95664 3.61381L9.7741 3.75737L9.16466 4.23666L9.11722 4.60464L9.09842 4.75038L8.91322 4.87916L8.89404 4.8925L8.29545 5.30874L8.04537 5.48263L7.6917 5.72855C7.69008 5.77521 7.6904 5.82264 7.69254 5.87065C7.69947 6.02572 7.72544 6.1868 7.76627 6.34715C7.89744 6.8623 8.18201 7.37 8.48152 7.6471L8.37878 6.35596C8.31314 6.1298 8.27615 5.89499 8.29557 5.66444C8.2993 5.62012 8.30512 5.57595 8.31322 5.53204C8.34161 5.52978 8.37134 5.52809 8.40223 5.52686C8.52691 5.52191 8.67043 5.52443 8.82036 5.52707C8.85108 5.52761 8.88207 5.52816 8.91322 5.52864C8.94135 5.52908 8.96962 5.52947 8.99793 5.52977C9.21116 5.53201 9.42738 5.52888 9.61294 5.50046L9.81803 4.37466L9.87305 4.33593L10.4013 3.96414L10.4105 3.83805L10.4553 3.22164L10.4828 2.84321L10.9761 2.20696L11.0064 2.06983Z" fill="#1F1F1F" stroke="#1F1F1F" stroke-width="14.5"/>
<path d="M18.0312 1.29316C18.0147 1.32145 18.0042 1.35169 17.9991 1.38362L17.8447 1.42956L17.8397 1.18147L18.0312 1.29316ZM18.0312 1.29316C18.2187 0.971663 18.6347 1.03841 18.9261 1.08517C18.943 1.08788 18.9594 1.09052 18.9754 1.09302L19.2344 1.01592M18.0312 1.29316L17.8397 1.18133L17.8293 0.669473C18.3584 0.434638 19.0894 0.532407 19.2344 1.01592M19.2344 1.01592L18.9768 1.09323C19.1521 1.12056 19.2684 1.12993 19.2344 1.01592ZM16.328 5.31725C16.3438 5.40526 16.3676 5.4947 16.3978 5.58375C16.564 6.07338 16.9249 6.55137 17.2251 6.71718L17.1402 5.95007L16.8284 5.28262L16.6732 4.9503L16.328 5.31725ZM16.8298 5.28162L16.6747 4.94866L16.992 4.61133L17.308 4.27537L17.3013 3.68221L17.2951 3.13644L17.6004 2.8419L17.868 2.58378L17.8448 1.43288L17.9986 1.38674C17.9682 1.58724 18.1439 1.85407 18.3403 2.12829C18.3615 2.15795 18.383 2.18769 18.4045 2.21745C18.4649 2.30117 18.5255 2.385 18.5809 2.46725L17.8791 3.13354L17.5804 3.41716L17.5599 4.00758L17.5327 4.79007L17.3156 4.9419L17.0492 5.12819L17.1399 5.94715L16.8298 5.28162Z" fill="#1F1F1F" stroke="#1F1F1F" stroke-width="14.5"/>
<mask id="path-5-inside-2_41_1496" fill="white">
<path d="M24.3789 10.8516C23.7461 11.035 23.6485 10.9663 23.7329 11.618C22.2713 10.922 20.7249 9.95412 21.6633 12.5184C20.0033 11.4959 20.0861 12.3914 19.7757 13.8649C19.3717 13.5392 18.7977 12.681 18.7977 12.681L18.1897 13.2152C18.1897 13.2152 19.3037 14.8406 19.8537 14.7483C20.3373 14.6676 20.6005 13.7221 20.6273 12.8887C22.1673 13.5612 22.9045 13.651 22.2001 11.6846C23.4313 12.4001 24.9409 13.0311 24.3789 10.8516Z"/>
</mask>
<path d="M24.3789 10.8516C23.7461 11.035 23.6485 10.9663 23.7329 11.618C22.2713 10.922 20.7249 9.95412 21.6633 12.5184C20.0033 11.4959 20.0861 12.3914 19.7757 13.8649C19.3717 13.5392 18.7977 12.681 18.7977 12.681L18.1897 13.2152C18.1897 13.2152 19.3037 14.8406 19.8537 14.7483C20.3373 14.6676 20.6005 13.7221 20.6273 12.8887C22.1673 13.5612 22.9045 13.651 22.2001 11.6846C23.4313 12.4001 24.9409 13.0311 24.3789 10.8516Z" fill="#1F1F1F"/>
<path d="M24.3789 10.8516L38.4196 7.23103L34.6903 -7.23146L20.3445 -3.07578L24.3789 10.8516ZM23.7329 11.618L17.4989 24.7095L41.5315 36.1535L38.1129 9.75574L23.7329 11.618ZM21.6633 12.5184L14.0589 24.8643L49.6427 46.7822L35.2802 7.53526L21.6633 12.5184ZM19.7757 13.8649L10.6759 25.154L29.0892 39.9964L33.9643 16.8538L19.7757 13.8649ZM18.7977 12.681L30.8503 4.61973L21.6538 -9.1302L9.22705 1.78824L18.7977 12.681ZM18.1897 13.2152L8.61905 2.32245L-1.0389 10.8081L6.22929 21.4127L18.1897 13.2152ZM19.8537 14.7483L17.4674 0.44604L17.4545 0.448193L19.8537 14.7483ZM20.6273 12.8887L26.4295 -0.399782L6.82247 -8.96078L6.13481 12.4227L20.6273 12.8887ZM22.2001 11.6846L29.4853 -0.852387L-4.83833 -20.7976L8.54958 16.5747L22.2001 11.6846ZM20.3445 -3.07578C20.4201 -3.0977 20.4787 -3.11307 20.4049 -3.09325C20.383 -3.08735 20.2999 -3.06511 20.2103 -3.04032C20.1176 -3.01467 19.9599 -2.97037 19.7701 -2.91252C19.5443 -2.84366 16.5679 -2.0505 13.8659 0.484604C10.3588 3.77495 9.44739 7.73452 9.25708 10.0727C9.11198 11.8554 9.3366 13.3534 9.35302 13.4802L38.1129 9.75574C38.1186 9.80028 38.152 10.0559 38.1765 10.4135C38.1994 10.7474 38.2383 11.4817 38.1615 12.4254C37.9855 14.5875 37.1222 18.4306 33.7081 21.6337C31.099 24.0816 28.2604 24.8168 28.2282 24.8267C27.9976 24.897 27.801 24.9481 27.9271 24.9142C27.9795 24.9001 28.1796 24.8468 28.4134 24.7791L20.3445 -3.07578ZM29.9669 -1.47351C29.8698 -1.51978 29.8359 -1.53743 29.5488 -1.67765C29.343 -1.77813 28.9599 -1.96453 28.5262 -2.15638C28.3146 -2.24997 25.559 -3.58678 22.0685 -3.65189C19.9752 -3.69094 16.1052 -3.3075 12.4742 -0.409027C8.67892 2.62068 7.38472 6.59111 7.02222 9.20984C6.44998 13.3439 7.77807 16.7681 8.04648 17.5015L35.2802 7.53526C35.3126 7.62389 35.4798 8.08351 35.6266 8.79897C35.7468 9.38445 36.0472 11.0274 35.7483 13.1862C35.4217 15.546 34.2209 19.3381 30.5665 22.2552C27.0766 25.0412 23.395 25.3779 21.5277 25.3431C19.6845 25.3087 18.3283 24.9067 17.8498 24.7566C17.2663 24.5736 16.873 24.3994 16.7958 24.3653C16.6979 24.322 16.668 24.3053 16.823 24.381C16.8965 24.4169 17.2307 24.5817 17.4989 24.7095L29.9669 -1.47351ZM29.2678 0.172465C28.5244 -0.285445 26.1894 -1.71875 22.9984 -2.22835C21.1466 -2.52407 18.5299 -2.59005 15.6489 -1.58654C12.6533 -0.543143 10.4274 1.28869 8.91856 3.16299C6.48193 6.18975 5.87657 9.46245 5.82082 9.7106C5.72394 10.1418 5.64901 10.5483 5.62663 10.6676C5.58958 10.865 5.58683 10.8773 5.5871 10.876L33.9643 16.8538C34.0422 16.4841 34.1048 16.1461 34.1291 16.0165C34.1681 15.8087 34.1506 15.9115 34.1155 16.0675C34.0831 16.2116 33.9505 16.799 33.6665 17.5646C33.3945 18.2979 32.777 19.7723 31.5083 21.3483C30.1122 23.0825 28.0202 24.8132 25.1879 25.7997C22.4702 26.7463 20.0463 26.6677 18.4251 26.4088C16.8727 26.1609 15.7389 25.7011 15.1858 25.4531C14.5911 25.1864 14.195 24.9482 14.0589 24.8643L29.2678 0.172465ZM28.8755 2.5758C29.7272 3.26234 30.2519 3.86535 30.3582 3.98661C30.5413 4.19566 30.6517 4.34047 30.6795 4.37699C30.7183 4.42807 30.7424 4.46209 30.7567 4.48233C30.7659 4.49552 30.7773 4.51183 30.7917 4.53291C30.799 4.54363 30.8074 4.55601 30.8171 4.57028C30.8219 4.57743 30.8271 4.58509 30.8326 4.59331C30.8354 4.59742 30.8382 4.60168 30.8412 4.60608C30.8427 4.60828 30.8442 4.61052 30.8457 4.61279C30.8464 4.61393 30.8472 4.61508 30.848 4.61623C30.8484 4.61681 30.849 4.61769 30.8491 4.61798C30.8497 4.61885 30.8503 4.61973 18.7977 12.681C6.74508 20.7423 6.74567 20.7432 6.74627 20.7441C6.74647 20.7444 6.74707 20.7453 6.74748 20.7459C6.74828 20.7471 6.7491 20.7483 6.74994 20.7496C6.7516 20.752 6.75331 20.7546 6.75506 20.7572C6.75857 20.7624 6.76225 20.7679 6.76612 20.7737C6.77384 20.7852 6.78228 20.7977 6.79142 20.8112C6.80967 20.8382 6.83081 20.8693 6.85463 20.9042C6.90201 20.9734 6.96135 21.0593 7.03074 21.1581C7.16521 21.3494 7.35813 21.6183 7.59096 21.9247C7.75846 22.1451 8.94389 23.7578 10.6759 25.154L28.8755 2.5758ZM9.22705 1.78824L8.61905 2.32245L27.7603 24.108L28.3684 23.5738L9.22705 1.78824ZM18.1897 13.2152C6.22929 21.4127 6.23032 21.4142 6.23136 21.4157C6.23171 21.4162 6.23276 21.4178 6.23346 21.4188C6.23488 21.4209 6.23631 21.4229 6.23777 21.4251C6.24069 21.4293 6.2437 21.4337 6.2468 21.4382C6.253 21.4472 6.25956 21.4567 6.26648 21.4667C6.2803 21.4867 6.29557 21.5087 6.31223 21.5326C6.34549 21.5802 6.38466 21.6359 6.42922 21.6984C6.51756 21.8224 6.6313 21.9794 6.76605 22.1593C7.01821 22.4961 7.42131 23.017 7.92764 23.5927C8.34785 24.0704 9.26002 25.0739 10.538 26.0539C11.1766 26.5437 12.3293 27.3581 13.9126 28.0366C15.3934 28.6712 18.4216 29.6913 22.2529 29.0485L17.4545 0.448193C21.1483 -0.171529 24.0213 0.817878 25.336 1.38131C26.7531 1.98861 27.7285 2.69117 28.1854 3.04153C29.0998 3.74274 29.6303 4.35713 29.7033 4.44008C29.8623 4.62094 29.9526 4.74132 29.9787 4.77617C30.0004 4.80516 30.0228 4.83588 30.0481 4.87135C30.0611 4.88964 30.0758 4.91046 30.0925 4.93435C30.1008 4.94634 30.1098 4.95922 30.1193 4.97306C30.1241 4.97999 30.1291 4.98716 30.1342 4.99461C30.1368 4.99833 30.1394 5.00212 30.142 5.00597C30.1434 5.0079 30.1447 5.00985 30.146 5.01181C30.1467 5.01279 30.1477 5.01428 30.1481 5.01477C30.1491 5.01626 30.1501 5.01776 18.1897 13.2152ZM22.2401 29.0506C26.9056 28.2722 29.8707 25.576 31.3662 23.7606C32.8439 21.967 33.6161 20.2004 34.0125 19.1278C34.8159 16.9542 35.0704 14.8926 35.1198 13.3548L6.13481 12.4227C6.15746 11.7182 6.2669 10.5461 6.81111 9.07377C7.07794 8.35187 7.692 6.88886 8.98345 5.32122C10.2928 3.73186 13.0436 1.18415 17.4674 0.446046L22.2401 29.0506ZM14.8252 26.1773C15.3127 26.3902 16.5088 26.9091 17.9331 27.2837C18.5225 27.4388 23.3279 28.8578 28.5554 26.3361C36.114 22.6898 37.0296 15.3261 36.9643 12.4659C36.9034 9.79777 36.1523 7.6366 35.8507 6.79456L8.54958 16.5747C8.51846 16.4878 8.41059 16.1802 8.29813 15.7115C8.19675 15.289 8.00015 14.3656 7.97189 13.1278C7.94506 11.9527 8.04719 9.68265 9.21735 7.10781C10.5423 4.19235 12.8806 1.69962 15.9554 0.216359C18.6935 -1.10453 21.1549 -1.21404 22.4699 -1.17026C23.8268 -1.12508 24.846 -0.884377 25.3106 -0.762162C26.1855 -0.532014 26.7119 -0.276456 26.4295 -0.399782L14.8252 26.1773ZM14.915 24.2216C15.4548 24.5353 16.4325 25.0833 17.627 25.5743C18.4469 25.9112 21.1989 27.0267 24.7546 26.832C26.7825 26.721 29.6568 26.1497 32.48 24.2073C35.4361 22.1735 37.2346 19.3928 38.1512 16.7444C39.6865 12.3085 38.7278 8.4259 38.4196 7.23103L10.3382 14.4722C10.3111 14.3671 9.37443 11.2229 10.7462 7.25934C11.5812 4.84702 13.2516 2.23595 16.0423 0.315868C18.7002 -1.51278 21.372 -2.02621 23.1693 -2.12461C26.264 -2.29403 28.4429 -1.33426 28.651 -1.24871C28.979 -1.11391 29.2086 -0.999124 29.3151 -0.94422C29.3749 -0.913378 29.4188 -0.889561 29.4447 -0.875253C29.4708 -0.860806 29.485 -0.852581 29.4853 -0.852387L14.915 24.2216Z" fill="#1F1F1F" mask="url(#path-5-inside-2_41_1496)"/>
<mask id="path-7-inside-3_41_1496" fill="white">
<path d="M2.11964 3.49121L3.25085 4.66183L2.11964 5.83204L0.988037 4.66183L2.11964 3.49121Z"/>
</mask>
<path d="M2.11964 3.49121L3.25085 4.66183L2.11964 5.83204L0.988037 4.66183L2.11964 3.49121Z" fill="#1F1F1F"/>
<path d="M2.11964 3.49121L12.5467 -6.5848L2.12149 -17.3733L-8.30565 -6.58665L2.11964 3.49121ZM3.25085 4.66183L13.6761 14.7397L23.4164 4.66361L13.6779 -5.41418L3.25085 4.66183ZM2.11964 5.83204L-8.30387 15.9117L2.12149 26.6927L12.5449 15.9099L2.11964 5.83204ZM0.988037 4.66183L-9.43726 -5.41603L-19.181 4.66361L-9.43548 14.7415L0.988037 4.66183ZM-8.30743 13.5672L-7.17622 14.7378L13.6779 -5.41418L12.5467 -6.5848L-8.30743 13.5672ZM-7.17444 -5.41603L-8.30565 -4.24582L12.5449 15.9099L13.6761 14.7397L-7.17444 -5.41603ZM12.5432 -4.24766L11.4116 -5.41787L-9.43548 14.7415L-8.30387 15.9117L12.5432 -4.24766ZM11.4133 14.7397L12.5449 13.5691L-8.30565 -6.58665L-9.43726 -5.41603L11.4133 14.7397Z" fill="#1F1F1F" mask="url(#path-7-inside-3_41_1496)"/>
<mask id="path-9-inside-4_41_1496" fill="white">
<path d="M4.82953 8.35773L3.69753 9.52793L2.56592 8.3569L3.69793 7.18628L4.82953 8.35773Z"/>
</mask>
<path d="M4.82953 8.35773L3.69753 9.52793L2.56592 8.3569L3.69793 7.18628L4.82953 8.35773Z" fill="#1F1F1F"/>
<path d="M4.82953 8.35773L15.2513 18.4393L24.9968 8.36485L15.2584 -1.71645L4.82953 8.35773ZM3.69753 9.52793L-6.72955 19.604L3.692 30.3886L14.1193 19.6095L3.69753 9.52793ZM2.56592 8.3569L-7.8576 -1.7228L-17.6014 8.35334L-7.86116 18.4329L2.56592 8.3569ZM3.69793 7.18628L14.1268 -2.8879L3.70345 -13.6782L-6.72559 -2.89342L3.69793 7.18628ZM-5.5922 -1.72381L-6.72421 -0.553607L14.1193 19.6095L15.2513 18.4393L-5.5922 -1.72381ZM14.1246 -0.548083L12.993 -1.71912L-7.86116 18.4329L-6.72955 19.604L14.1246 -0.548083ZM12.9894 18.4366L14.1214 17.266L-6.72559 -2.89342L-7.8576 -1.7228L12.9894 18.4366ZM-6.73093 17.2605L-5.59932 18.4319L15.2584 -1.71645L14.1268 -2.8879L-6.73093 17.2605Z" fill="#1F1F1F" mask="url(#path-9-inside-4_41_1496)"/>
<mask id="path-11-inside-5_41_1496" fill="white">
<path d="M6.58791 1.65527L7.71912 2.82548L6.58751 3.99651L5.4563 2.82548L6.58791 1.65527Z"/>
</mask>
<path d="M6.58791 1.65527L7.71912 2.82548L6.58751 3.99651L5.4563 2.82548L6.58791 1.65527Z" fill="#1F1F1F"/>
<path d="M6.58791 1.65527L17.0132 -8.42259L6.58975 -19.2054L-3.83561 -8.42443L6.58791 1.65527ZM7.71912 2.82548L18.1462 12.9015L27.8847 2.8237L18.1444 -7.25238L7.71912 2.82548ZM6.58751 3.99651L-3.84135 14.0707L6.58566 24.8648L17.0146 14.0725L6.58751 3.99651ZM5.4563 2.82548L-4.96722 -7.25422L-14.7093 2.82014L-4.97256 12.8997L5.4563 2.82548ZM-3.83739 11.7331L-2.70618 12.9033L18.1444 -7.25238L17.0132 -8.42259L-3.83739 11.7331ZM-2.70796 -7.25054L-3.83957 -6.0795L17.0146 14.0725L18.1462 12.9015L-2.70796 -7.25054ZM17.0164 -6.07766L15.8852 -7.24869L-4.97256 12.8997L-3.84135 14.0707L17.0164 -6.07766ZM15.8798 12.9052L17.0114 11.735L-3.83561 -8.42443L-4.96722 -7.25422L15.8798 12.9052Z" fill="#1F1F1F" mask="url(#path-11-inside-5_41_1496)"/>
<mask id="path-13-inside-6_41_1496" fill="white">
<path d="M18.9045 17.9933L17.7725 16.8226L18.9037 15.6516L20.0357 16.8222L18.9045 17.9933Z"/>
</mask>
<path d="M18.9045 17.9933L17.7725 16.8226L18.9037 15.6516L20.0357 16.8222L18.9045 17.9933Z" fill="#1F1F1F"/>
<path d="M18.9045 17.9933L8.48095 28.073L18.91 38.8577L29.3333 28.0674L18.9045 17.9933ZM17.7725 16.8226L7.34361 6.74847L-2.39311 16.828L7.34894 26.9023L17.7725 16.8226ZM18.9037 15.6516L29.3272 5.57191L18.8981 -5.21286L8.47482 5.57744L18.9037 15.6516ZM20.0357 16.8222L30.4645 26.8964L40.2013 16.8169L30.4592 6.74253L20.0357 16.8222ZM29.328 7.91357L28.196 6.74295L7.34894 26.9023L8.48095 28.073L29.328 7.91357ZM28.2013 26.8968L29.3325 25.7258L8.47482 5.57744L7.34361 6.74847L28.2013 26.8968ZM8.48016 25.7313L9.61217 26.9019L30.4592 6.74253L29.3272 5.57191L8.48016 25.7313ZM9.60682 6.74806L8.47561 7.9191L29.3333 28.0674L30.4645 26.8964L9.60682 6.74806Z" fill="#1F1F1F" mask="url(#path-13-inside-6_41_1496)"/>
<mask id="path-15-inside-7_41_1496" fill="white">
<path d="M16.3822 22.0081L15.251 20.8379L16.3822 19.6672L17.5138 20.8379L16.3822 22.0081Z"/>
</mask>
<path d="M16.3822 22.0081L15.251 20.8379L16.3822 19.6672L17.5138 20.8379L16.3822 22.0081Z" fill="#1F1F1F"/>
<path d="M16.3822 22.0081L5.9569 32.0859L16.3804 42.8687L26.8057 32.0878L16.3822 22.0081ZM15.251 20.8379L4.8239 10.7618L-4.9146 20.8396L4.82569 30.9157L15.251 20.8379ZM16.3822 19.6672L26.8075 9.58939L16.3804 -1.19725L5.95511 9.59122L16.3822 19.6672ZM17.5138 20.8379L27.9373 30.9176L37.6828 20.8396L27.9391 10.76L17.5138 20.8379ZM26.8075 11.9302L25.6763 10.76L4.82569 30.9157L5.9569 32.0859L26.8075 11.9302ZM25.6781 30.9139L26.8093 29.7433L5.95511 9.59122L4.8239 10.7618L25.6781 30.9139ZM5.95688 29.7451L7.08849 30.9157L27.9391 10.76L26.8075 9.58939L5.95688 29.7451ZM7.09028 10.7582L5.95867 11.9284L26.8057 32.0878L27.9373 30.9176L7.09028 10.7582Z" fill="#1F1F1F" mask="url(#path-15-inside-7_41_1496)"/>
<mask id="path-17-inside-8_41_1496" fill="white">
<path d="M21.3454 22.9325L20.2134 21.7619L21.3442 20.5908L22.4762 21.7614L21.3454 22.9325Z"/>
</mask>
<path d="M21.3454 22.9325L20.2134 21.7619L21.3442 20.5908L22.4762 21.7614L21.3454 22.9325Z" fill="#1F1F1F"/>
<path d="M21.3454 22.9325L10.9219 33.0122L21.3528 43.7989L31.776 33.0048L21.3454 22.9325ZM20.2134 21.7619L9.78275 11.6895L0.0495281 21.769L9.78986 31.8416L20.2134 21.7619ZM21.3442 20.5908L31.7677 10.5111L21.3368 -0.27556L10.9136 10.5185L21.3442 20.5908ZM22.4762 21.7614L32.9068 31.8338L42.64 21.7543L32.8997 11.6817L22.4762 21.7614ZM31.7689 12.8528L30.6369 11.6822L9.78986 31.8416L10.9219 33.0122L31.7689 12.8528ZM30.644 31.8342L31.7748 30.6632L10.9136 10.5185L9.78275 11.6895L30.644 31.8342ZM10.9207 30.6705L12.0527 31.8411L32.8997 11.6817L31.7677 10.5111L10.9207 30.6705ZM12.0456 11.6891L10.9148 12.8601L31.776 33.0048L32.9068 31.8338L12.0456 11.6891Z" fill="#1F1F1F" mask="url(#path-17-inside-8_41_1496)"/>
<mask id="path-19-inside-9_41_1496" fill="white">
<path d="M22.4767 17.6011L21.3455 16.4305L22.4767 15.2603L23.6079 16.4305L22.4767 17.6011Z"/>
</mask>
<path d="M22.4767 17.6011L21.3455 16.4305L22.4767 15.2603L23.6079 16.4305L22.4767 17.6011Z" fill="#1F1F1F"/>
<path d="M22.4767 17.6011L12.0496 27.6771L22.4767 38.4675L32.9037 27.6771L22.4767 17.6011ZM21.3455 16.4305L10.9202 6.3526L1.17987 16.4287L10.9184 26.5065L21.3455 16.4305ZM22.4767 15.2603L32.902 5.1824L22.4767 -5.60231L12.0514 5.18239L22.4767 15.2603ZM23.6079 16.4305L34.035 26.5065L43.7734 16.4287L34.0332 6.3526L23.6079 16.4305ZM32.9037 7.52506L31.7725 6.35444L10.9184 26.5065L12.0496 27.6771L32.9037 7.52506ZM31.7707 26.5083L32.902 25.3381L12.0514 5.18239L10.9202 6.3526L31.7707 26.5083ZM12.0514 25.3381L13.1826 26.5083L34.0332 6.3526L32.902 5.1824L12.0514 25.3381ZM13.1808 6.35444L12.0496 7.52506L32.9037 27.6771L34.035 26.5065L13.1808 6.35444Z" fill="#1F1F1F" mask="url(#path-19-inside-9_41_1496)"/>
<mask id="path-21-inside-10_41_1496" fill="white">
<path d="M20.5882 2.89648L21.7194 4.06669L20.5878 5.23731L19.4565 4.06669L20.5882 2.89648Z"/>
</mask>
<path d="M20.5882 2.89648L21.7194 4.06669L20.5878 5.23731L19.4565 4.06669L20.5882 2.89648Z" fill="#1F1F1F"/>
<path d="M20.5882 2.89648L31.0134 -7.18137L20.59 -17.9642L10.1646 -7.18322L20.5882 2.89648ZM21.7194 4.06669L32.1447 14.1445L41.8867 4.06669L32.1447 -6.01116L21.7194 4.06669ZM20.5878 5.23731L10.1607 15.3133L20.5859 26.1018L31.0131 15.3152L20.5878 5.23731ZM19.4565 4.06669L9.03303 -6.01301L-0.71076 4.06313L9.02947 14.1427L19.4565 4.06669ZM10.1629 12.9743L11.2941 14.1445L32.1447 -6.01116L31.0134 -7.18137L10.1629 12.9743ZM11.2941 -6.01116L10.1625 -4.84054L31.0131 15.3152L32.1447 14.1445L11.2941 -6.01116ZM31.0148 -4.83871L29.8836 -6.00933L9.02947 14.1427L10.1607 15.3133L31.0148 -4.83871ZM29.8801 14.1464L31.0117 12.9762L10.1646 -7.18322L9.03303 -6.01301L29.8801 14.1464Z" fill="#1F1F1F" mask="url(#path-21-inside-10_41_1496)"/>
</svg>
