<svg width="18" height="18" viewBox="0 0 18 18" fill="none" xmlns="http://www.w3.org/2000/svg">
<path d="M2.00023 7C2.00023 5.67392 2.52702 4.40215 3.4647 3.46447C4.40238 2.52678 5.67415 2 7.00023 2C8.32632 2 9.59808 2.52678 10.5358 3.46447C11.4734 4.40215 12.0002 5.67392 12.0002 7C12.0002 8.32608 11.4734 9.59785 10.5358 10.5355C9.59808 11.4732 8.32632 12 7.00023 12C5.67415 12 4.40238 11.4732 3.4647 10.5355C2.52702 9.59785 2.00023 8.32608 2.00023 7ZM7.00023 2.20582e-07C5.89149 2.1098e-06 4.79861 0.263375 3.81158 0.768432C2.82456 1.27349 1.97162 2.00578 1.32301 2.90501C0.674396 3.80423 0.248664 4.84467 0.0808701 5.94064C-0.0869239 7.03661 0.00801983 8.15676 0.357883 9.20885C0.707746 10.2609 1.30252 11.2149 2.09323 11.9921C2.88394 12.7693 3.84796 13.3476 4.90591 13.6794C5.96386 14.0111 7.08548 14.0868 8.1784 13.9001C9.27133 13.7135 10.3043 13.27 11.1922 12.606L16.2922 17.707C16.4797 17.8946 16.7341 18.0001 16.9994 18.0002C17.2646 18.0003 17.5191 17.895 17.7067 17.7075C17.8944 17.52 17.9998 17.2656 17.9999 17.0004C18 16.7351 17.8947 16.4806 17.7072 16.293L12.6072 11.193C13.3856 10.1525 13.8589 8.91592 13.9743 7.62167C14.0897 6.32741 13.8426 5.02658 13.2606 3.86481C12.6787 2.70304 11.7848 1.72618 10.6791 1.0436C9.57346 0.361026 8.29962 -0.000325925 7.00023 2.20582e-07Z" fill="#1F1F1F"/>
</svg>
