<svg width="45" height="36" viewBox="0 0 45 36" fill="none" xmlns="http://www.w3.org/2000/svg">
<path d="M38 25C38 27.7614 35.7614 30 33 30L12 30C9.23858 30 7.00001 27.7614 7.00001 25L7.00001 6C7.00001 4.89543 7.89544 4 9.00001 4L36 4C37.1046 4 38 4.89543 38 6L38 25Z" fill="#3A3A3A"/>
<path d="M45 32.4286C45 34.401 43.401 36 41.4286 36L3.57144 36C1.59899 36 7.62939e-06 34.401 7.62939e-06 32.4286V32.4286C7.62939e-06 31.6396 0.639601 31 1.42858 31L43.5714 31C44.3604 31 45 31.6396 45 32.4286V32.4286Z" fill="#3A3A3A"/>
<path d="M6.00001 28C6.00001 29.1046 5.10458 30 4.00001 30L2.00001 30C0.895438 30 7.62939e-06 29.1046 7.62939e-06 28L7.62939e-06 4.15385C7.62939e-06 1.85974 1.85975 0 4.15385 0V0C5.17346 0 6.00001 0.826551 6.00001 1.84615L6.00001 28Z" fill="#3A3A3A"/>
<path d="M45 28C45 29.1046 44.1046 30 43 30L41 30C39.8954 30 39 29.1046 39 28L39 1.5C39 0.671573 39.6716 0 40.5 0V0C42.9853 0 45 2.01472 45 4.5L45 28Z" fill="#3A3A3A"/>
</svg>
