<svg width="45" height="43" viewBox="0 0 45 43" fill="none" xmlns="http://www.w3.org/2000/svg">
<path d="M10.63 36.792L18.2437 27.5596L21.7265 32.0019L15.0136 40.5384C12.4428 43.8051 7.68558 40.3627 10.63 36.792ZM19.5218 15.7673C20.2469 13.4015 19.9137 11.38 17.189 8.377L10.5311 0.367764C9.58626 -0.741883 7.35964 0.887796 8.28984 2.23182L13.6147 8.79082C14.6218 10.014 12.7504 11.6327 11.7103 10.3729L6.20239 3.5905C5.17697 2.41493 3.05656 3.96771 4.12958 5.31173C5.68235 7.17946 8.08476 10.2301 9.63753 12.0978C10.7142 13.1928 9.07721 14.8151 8.01518 13.4491L2.54751 6.71069C1.74549 5.83909 0.434422 6.3811 0.0865129 7.39919C-0.287031 8.48686 0.632181 9.28156 1.25842 10.0872L7.35964 17.9683C9.253 20.162 11.3698 21.462 13.8307 20.7259C14.208 20.6124 14.6694 20.3817 15.1638 20.0777L31.5558 41.2379C32.4384 42.3769 34.1413 42.4977 35.2473 41.5785L35.5 41.3698C36.7451 40.3334 36.9466 38.44 35.8809 37.2168L18.522 17.2725C19.0274 16.7085 19.3973 16.1738 19.5218 15.7673ZM24.1618 20.3817L26.8609 17.1077C23.3891 8.50151 36.2544 -2.9685 42.4911 2.30507C50.0682 8.71758 38.807 24.1721 30.8929 20.3524L27.6958 24.4138L24.1618 20.3817Z" fill="black"/>
</svg>
